<svg xmlns="http://www.w3.org/2000/svg" viewBox="0 0 420 150" role="img" aria-labelledby="logoTitle logoDesc">
  <title id="logoTitle">Joseph Flowershop logo</title>
  <desc id="logoDesc">A rectangular floral logo with a clean cream plaque, green leaves, and pink flowers.</desc>
  <defs>
    <linearGradient id="plaqueFill" x1="0%" y1="0%" x2="100%" y2="100%">
      <stop offset="0%" stop-color="#fffdf8"/>
      <stop offset="100%" stop-color="#fff5ea"/>
    </linearGradient>
    <linearGradient id="trimFill" x1="0%" y1="0%" x2="100%" y2="0%">
      <stop offset="0%" stop-color="#c8934f"/>
      <stop offset="100%" stop-color="#e7c686"/>
    </linearGradient>
  </defs>

  <g opacity="0.95">
    <ellipse cx="80" cy="42" rx="18" ry="34" fill="#7a9360" transform="rotate(-34 80 42)"/>
    <ellipse cx="116" cy="30" rx="16" ry="32" fill="#92a86f" transform="rotate(12 116 30)"/>
    <ellipse cx="334" cy="38" rx="17" ry="35" fill="#7e9663" transform="rotate(29 334 38)"/>
    <ellipse cx="365" cy="54" rx="16" ry="31" fill="#9ab176" transform="rotate(-18 365 54)"/>
    <ellipse cx="74" cy="113" rx="16" ry="31" fill="#90a76d" transform="rotate(28 74 113)"/>
    <ellipse cx="340" cy="112" rx="18" ry="34" fill="#819967" transform="rotate(-31 340 112)"/>
  </g>

  <g opacity="0.92">
    <path d="M58 48c18-18 34-23 49-11-6 17-18 27-38 32-9-4-13-10-11-21z" fill="#f7c6d8"/>
    <path d="M108 26c14-11 27-12 40 0-6 16-18 24-35 26-9-3-11-11-5-26z" fill="#f4b9cf"/>
    <path d="M320 28c17-14 31-14 44 2-9 14-22 23-40 25-8-4-10-12-4-27z" fill="#f6bfd4"/>
    <path d="M346 55c21-11 36-8 48 11-11 12-25 18-44 19-9-6-10-15-4-30z" fill="#ffd5e2"/>
    <path d="M54 96c17-9 30-6 42 8-8 14-19 21-35 23-10-3-13-12-7-31z" fill="#ffd6e2"/>
    <path d="M320 96c18-12 33-11 45 1-6 16-18 25-37 30-10-4-13-13-8-31z" fill="#f6c1d7"/>
  </g>

  <rect x="80" y="36" width="260" height="78" rx="6" fill="url(#trimFill)"/>
  <rect x="86" y="42" width="248" height="66" rx="4" fill="url(#plaqueFill)"/>

  <text x="210" y="74" text-anchor="middle" fill="#6f8754" font-size="27" font-weight="700" font-family="'Georgia', serif" letter-spacing="1.4">
    Joseph
  </text>
  <text x="210" y="97" text-anchor="middle" fill="#8c3141" font-size="21" font-weight="600" font-family="'Georgia', serif" letter-spacing="1.1">
    Flowershop
  </text>
</svg>
